<?xml version="1.0" encoding="utf-8"?>
<!-- Generator: Adobe Illustrator 23.0.1, SVG Export Plug-In . SVG Version: 6.00 Build 0)  -->
<svg version="1.1" id="Layer_1" xmlns="http://www.w3.org/2000/svg" xmlns:xlink="http://www.w3.org/1999/xlink" x="0px" y="0px"
	 viewBox="0 0 172.7 172.2" style="enable-background:new 0 0 172.7 172.2;" xml:space="preserve">
<style type="text/css">
	.st0{fill:none;stroke:#134C49;stroke-width:8;}
	.st1{fill:#134C49;}
</style>
<path class="st0" d="M5.3,96.8C-0.8,49.2,39,3.1,88.4,4.4c47.6,1.2,84.7,45.8,79.1,92c-4.7,38.4-38,70.3-78.9,71.5
	C46.2,169,10.3,136.5,5.3,96.8z"/>
<path class="st1" d="M82.2,44.8c0.1,24.6,0.3,49.2,0.4,73.8c-9.1-9.3-18.3-18.6-27.4-27.9c-0.7-0.7-3-1.1-4.2-0.1
	c-1.4,1.1-0.9,3.7-0.8,4.3c11.2,11.4,22.5,22.8,33.7,34.2c0.1,0.1,1.1,1.2,2.6,1.1c1.3-0.1,2.1-1,2.2-1.2
	c11.1-11,22.3-22.1,33.4-33.1c0.9-1.5,0.6-3.3-0.6-4.4c-1.3-1.2-3.5-1.2-4.9,0.2c-9.1,9.1-18.1,18.2-27.2,27.2c0-24.8,0-49.6,0-74.5
	c-0.1-2-1.7-3.5-3.6-3.5C83.9,41,82.2,42.7,82.2,44.8z"/>
</svg>
