<?xml version="1.0" encoding="utf-8"?>
<!-- Generator: Adobe Illustrator 23.0.1, SVG Export Plug-In . SVG Version: 6.00 Build 0)  -->
<svg version="1.1" id="Layer_1" xmlns="http://www.w3.org/2000/svg" xmlns:xlink="http://www.w3.org/1999/xlink" x="0px" y="0px"
	 viewBox="0 0 51 40.2" style="enable-background:new 0 0 51 40.2;" xml:space="preserve">
<style type="text/css">
	.st0{fill:#134C49;}
</style>
<desc>Created by EvoPdf</desc>
<path vector-effect="none" class="st0" d="M2.1,37.2c-1.1,0.5-2.2,1.5-1.8,1.7c0.3,0.1,3,0,5.1-0.2c0,0,2.3-0.2,2.8-0.2
	c2.9-0.3,7.6-0.9,9.7-1.6c3.2-1.1,5.8-2.3,6.5-5.3s2.2-4.2,2.6-2.9c0.4,1.3,1.1-0.3,0.7,3.1c-0.4,3.4-2.7,4.4,0.3,5.4
	c3,0.9,7.2,2.2,9.1,2.6c1.9,0.3,2.7,0,2.2-0.3c-0.3-0.3,1.1,0,0.5-0.5s-1.3-1.3-1.7-1.3s-6-1.3-7.2-1.5s-1-4.2-0.6-6.3
	c0.2-0.9,0.7-1.7,1.4-2.4c0.1,0.3,0.1,0.9,0.1,1.7c0,3.4-2,4.9,1,5.2c3.1,0.4,7.4,0.9,9.3,0.9c1.9,0,2.6-0.5,2.2-0.7
	c-0.4-0.2,1.1-0.2,0.4-0.6c-0.7-0.4-1.5-1-1.9-0.9c-0.4,0.1-6.1-0.2-7.3-0.2c-1.1,0-1.6-4-1.5-6.1c0-0.3,0.1-0.5,0.2-0.8l0.1-0.7
	c0.4-0.3,0.8-0.5,1.2-0.8c2.6-1.5,3.6-2,3.6-2s1.8,2.5,2.2,2.9c0.3,0.5,0.2,1.3,0.2,1.3l-0.4,0.2c0,0-0.1-0.1-0.3-0.2
	c-0.2-0.2,0.1,0.3-0.3,0.1c-0.3-0.2-0.3,0.2-0.1,0.5c0.2,0.3,0.6,0.5,1,0.3c0.3-0.2,1-0.5,1.1-1.1c0.2-0.6-0.3-1-0.3-1l-1.6-3.6
	l0.6-0.2c0,0,0.9,1.6,1.7,2.3c0.8,0.7,1,1.5,1,1.7c-0.1,0.2,0,0.8,0.1,1s0.1,0.7-0.1,1c-0.1,0.4-0.1,0.8,0.1,0.7
	c0.2-0.1,0.2-0.3,0.2-0.3s0.2-0.1,0,0.3c-0.2,0.4,0,0.3,0,0.3s0.1,0,0.2-0.1c0.1-0.1,0.1-0.2,0.2-0.2s0.4-0.2,0.3-0.7
	c0-0.5,0-1.8,0-1.8s-0.9-1.8-1.6-3.1s-0.6-2.3-0.6-2.3s0.5-1,1.3-2.3c0.8-1.3,1-3.3,1.4-4c0.4-0.7,0.4-1.5,0.3-2.1s-0.1-0.7,0.9-0.7
	c0.4,0,0.7,0.1,0.9,0.1l0.9,0.5c0.3,0.1,0.3,0.2,0.6,0.3c0.5,0.1,0.5,0.3,0.9,0.3c0.7,0-0.1-0.9-0.1-0.9s0.6,0.2,0.9,0
	s0.2-0.5,0.2-0.5s0.4-0.2-0.2-1.1c-0.2-0.8-1.9-1.9-1.9-1.9C48.3,7.9,48,7.7,48,7.4c-0.1-0.6,0.1-1-0.6-1.1s-0.6-0.5-1.1-0.7
	c-0.1-0.1-0.3-0.1-0.4-0.1c0.4-0.3,1.3-1.1,1.2-2.9C47,0.1,47,0.1,47,0.1s-0.6-0.3-1.3,1.5c-0.6,1.6-0.3,3.3-0.3,3.8
	c-0.2,0-0.3,0-0.5,0c-0.3-0.7-1-2.1-2.4-2.6c-1.9-0.5-2.2-0.7-2.2-0.7S40.2,2.7,41,3.9c0.8,1.1,1.9,1.9,2.7,2
	C43.6,6,43.5,6,43.4,6.1c-1.1,1-1.5,1.2-1.9,2.7c-0.4,1.4-0.6,2.4-0.6,2.4L39.1,12c0,0-3.5-2.1-5.2-2.3c0,0-4.8-1-8.5,2.4
	s-5.3,4.8-5.3,7.8c-0.1,5.4,1.3,5.7-0.3,8.8c-1.7,3.1-3.3,5.1-8.9,6.4C11,35.1,2.7,37,2.1,37.2"/>
</svg>
