<?xml version="1.0" encoding="utf-8"?>
<!-- Generator: Adobe Illustrator 23.0.1, SVG Export Plug-In . SVG Version: 6.00 Build 0)  -->
<svg version="1.1" id="Layer_1" xmlns="http://www.w3.org/2000/svg" xmlns:xlink="http://www.w3.org/1999/xlink" x="0px" y="0px"
	 viewBox="0 0 236.3 60" style="enable-background:new 0 0 236.3 60;" xml:space="preserve">
<style type="text/css">
	.st0{fill:#ffffff;}
	.st1{fill-rule:evenodd;clip-rule:evenodd;fill:#ffffff;}
</style>
<desc>Created by EvoPdf</desc>
<path vector-effect="none" class="st0" d="M4.1,47.3C2.8,47.8,1.6,48.8,2,49c0.4,0.1,3.5,0,5.9-0.2c0,0,2.7-0.2,3.2-0.2
	c3.4-0.3,8.8-0.9,11.2-1.6c3.7-1.1,6.7-2.3,7.5-5.3c0.8-3,2.5-4.2,3-2.9c0.5,1.3,1.3-0.3,0.8,3.1c-0.5,3.4-3.1,4.4,0.4,5.4
	c3.5,0.9,8.3,2.2,10.5,2.6c2.2,0.3,3.1,0,2.6-0.3c-0.4-0.3,1.3,0,0.6-0.5c-0.7-0.5-1.5-1.3-2-1.3s-7-1.3-8.3-1.5
	c-1.3-0.2-1.2-4.2-0.7-6.3c0.2-0.9,0.8-1.7,1.6-2.4c0.1,0.3,0.1,0.9,0.1,1.7c0,3.4-2.3,4.9,1.2,5.2c3.6,0.4,8.6,0.9,10.8,0.9
	c2.2,0,3-0.5,2.6-0.7c-0.5-0.2,1.3-0.2,0.5-0.6c-0.8-0.4-1.7-1-2.2-0.9c-0.5,0.1-7.1-0.2-8.4-0.2c-1.3,0-1.9-4-1.7-6.1
	c0-0.3,0.1-0.5,0.2-0.8l0.1-0.7c0.5-0.3,0.9-0.5,1.4-0.8c3-1.5,4.2-2,4.2-2s2.1,2.5,2.5,2.9c0.4,0.5,0.2,1.3,0.2,1.3L49.3,37
	c0,0-0.1-0.1-0.3-0.2c-0.2-0.2,0.1,0.3-0.3,0.1c-0.3-0.2-0.3,0.2-0.1,0.5c0.2,0.3,0.7,0.5,1.1,0.3c0.4-0.2,1.1-0.5,1.3-1.1
	c0.2-0.6-0.4-1-0.4-1l-1.9-3.6l0.7-0.2c0,0,1,1.6,2,2.3c0.9,0.7,1.2,1.5,1.2,1.7c-0.1,0.2,0,0.8,0.1,1c0.1,0.2,0.1,0.7-0.1,1
	c-0.1,0.4-0.1,0.8,0.1,0.7c0.2-0.1,0.2-0.3,0.2-0.3s0.2-0.1,0,0.3c-0.2,0.4,0,0.3,0,0.3s0.1,0,0.2-0.1c0.1-0.1,0.1-0.2,0.2-0.2
	c0.1,0,0.5-0.2,0.4-0.7c0-0.5,0-1.8,0-1.8s-1-1.8-1.8-3.1c-0.8-1.3-0.7-2.3-0.7-2.3s0.6-1,1.5-2.3c0.9-1.3,1.2-3.3,1.6-4
	c0.5-0.7,0.5-1.5,0.3-2.1c-0.2-0.6-0.1-0.7,1-0.7c0.5,0,0.8,0.1,1,0.1l1,0.5c0.3,0.1,0.4,0.2,0.7,0.3c0.6,0.1,0.6,0.3,1,0.3
	c0.8,0-0.1-0.9-0.1-0.9s0.7,0.2,1,0c0.3-0.2,0.2-0.5,0.2-0.5s0.5-0.2-0.2-1.1C60,19.4,58,18.3,58,18.3c-0.4-0.3-0.7-0.5-0.7-0.8
	c-0.1-0.6,0.1-1-0.7-1.1c-0.8-0.1-0.7-0.5-1.3-0.7c-0.1-0.1-0.3-0.1-0.5-0.1c0.5-0.3,1.5-1.1,1.4-2.9c-0.1-2.5-0.1-2.5-0.1-2.5
	s-0.7-0.3-1.5,1.5c-0.7,1.6-0.4,3.3-0.3,3.8c-0.2,0-0.4,0-0.6,0c-0.3-0.7-1.1-2.1-2.8-2.6c-2.2-0.5-2.6-0.7-2.6-0.7
	s-0.1,0.6,0.9,1.8c0.9,1.1,2.2,1.9,3.1,2c-0.1,0.1-0.2,0.1-0.3,0.2c-1.3,1-1.7,1.2-2.2,2.7c-0.5,1.4-0.7,2.4-0.7,2.4l-2.1,0.8
	c0,0-4-2.1-6-2.3c0,0-5.5-1-9.8,2.4S25.1,27,25.1,30c-0.1,5.4,1.5,5.7-0.4,8.8c-2,3.1-3.8,5.1-10.3,6.4C14.4,45.2,4.8,47.1,4.1,47.3
	"/>

<path vector-effect="none" class="st1" d="M71.7,0.6h1.7v59.1h-1.7V0.6"/>
<path vector-effect="none" class="st0" d="M89.8,10.7l8.9,11.8h-2.8l-2.5-3.3h-7.1l-2.4,3.3H81L89.8,10.7 M88,16.9h3.7l-1.8-2.4
	L88,16.9 M116.4,11.4l0,5.5c0,1.2-0.5,2.4-1.4,3.3c-1,1-2.8,2.2-6.3,2.2c0,0-0.1,0-0.1,0c-2.6,0-4.8-0.8-6.2-2.1
	c-0.9-0.9-1.4-2.1-1.4-3.4l0-5.5l2.3,0l0,5.5l0,0c0,0.6,0.3,1.3,0.8,1.8c0.9,1,2.6,1.5,4.6,1.5c2.1,0,3.8-0.6,4.7-1.5
	c0.5-0.5,0.7-1.1,0.7-1.7v0l0-5.5L116.4,11.4 M122.4,13.9c-0.2,0.1-0.4,0.3-0.4,0.9c0,0.4,0.1,0.7,0.5,0.9c0.4,0.2,0.8,0.2,0.8,0.2
	l8.2,0c1.4,0,3.6,0.9,3.6,3.3s-2,3.3-3.3,3.3h-12.1v-2.3h12.1c0.1,0,0.4,0,0.6-0.2c0.2-0.1,0.4-0.3,0.4-0.9c0-0.4-0.1-0.7-0.5-0.9
	c-0.4-0.2-0.8-0.2-0.8-0.2l-8.2,0v0c-1.4,0-3.6-0.9-3.6-3.3c0-2.4,2-3.3,3.3-3.3h12.1v2.3H123C122.9,13.7,122.6,13.7,122.4,13.9
	L122.4,13.9 M138.3,11.4h15.4v2.3h-6.6v8.8h-2.3v-8.8h-6.6L138.3,11.4L138.3,11.4 M170.8,20.2l1.1,0l0,2.2l-1.1,0
	c-0.2,0-0.4,0-0.6,0c-1.6,0-4.1-0.2-5.6-1.7c-0.7-0.7-1.1-1.6-1.3-2.6h-4.1l0,4.3l-2.2,0l0-9.8v-1.1h0v0l1.1,0h10.6
	c1.4,0,3.5,0.9,3.5,3.3c0,2.4-2,3.3-3.3,3.3h-3.4c0.1,0.4,0.3,0.8,0.6,1C167.3,20.2,169.6,20.2,170.8,20.2L170.8,20.2 M159.2,15.9
	h9.7c0.1,0,0.4,0,0.6-0.2c0.2-0.1,0.4-0.3,0.4-0.9c0-0.5-0.2-0.7-0.5-0.9c-0.4-0.2-0.7-0.2-0.7-0.2h-9.5L159.2,15.9L159.2,15.9
	 M183.3,10.7l8.9,11.8h-2.8l-2.5-3.3h-7.1l-2.4,3.3h-2.8L183.3,10.7 M181.5,16.9h3.7l-1.8-2.4L181.5,16.9 M196.8,20.2h13.1v2.3
	h-15.4v-11h2.3V20.2L196.8,20.2 M215.4,22.6h-2.2V11.7h2.2V22.6 M226.5,10.7l8.9,11.8h-2.8l-2.5-3.3H223l-2.4,3.3h-2.8L226.5,10.7
	 M224.7,16.9h3.7l-1.8-2.4L224.7,16.9"/>
<path vector-effect="none" class="st0" d="M85.6,35.4c-0.4,0.2-0.7,0.5-0.7,1.5c0,0.7,0.2,1.2,0.9,1.5c0.6,0.3,1.3,0.3,1.4,0.3
	l13.9,0.1c2.4,0,6,1.5,6,5.6s-3.4,5.6-5.6,5.6H81v-3.8h20.4c0.2,0,0.7-0.1,1.1-0.3c0.4-0.2,0.7-0.5,0.7-1.5c0-0.7-0.2-1.2-0.9-1.5
	c-0.6-0.3-1.3-0.3-1.4-0.3L87,42.4v0c-2.4,0-6-1.5-6-5.6c0-4.1,3.4-5.6,5.6-5.6H107v3.8H86.6C86.5,35.1,86,35.1,85.6,35.4L85.6,35.4
	 M125.8,30l15,19.9H136l-4.2-5.5h-11.9l-4.1,5.5h-4.8L125.8,30 M122.7,40.5h6.2l-3.1-4.1L122.7,40.5 M170.7,35.3h-22.2v3.6h14.8v3.8
	h-14.8v7.4h-3.8V31.5h26L170.7,35.3L170.7,35.3 M181.4,30l15,19.9h-4.8l-4.2-5.5h-11.9l-4.1,5.5h-4.8L181.4,30 M178.3,40.5h6.2
	l-3.1-4.1L178.3,40.5 M223.7,46.1l1.9,0l0.1,3.8l-1.9,0c-0.3,0-0.6,0-1,0c-2.6,0-6.9-0.3-9.5-2.9c-1.2-1.2-1.9-2.7-2.2-4.4h-6.9
	l0,7.3l-3.8,0l0.1-16.5v-1.9h0v0l1.9,0h17.9c2.4,0,6,1.5,6,5.6c0,4.1-3.3,5.6-5.6,5.6h-5.7c0.2,0.7,0.5,1.3,1,1.7
	C217.8,46.1,221.8,46.1,223.7,46.1L223.7,46.1 M204.2,38.7h16.4c0.2,0,0.7-0.1,1.1-0.3c0.4-0.2,0.7-0.5,0.7-1.5
	c0-0.8-0.3-1.2-0.9-1.5c-0.6-0.3-1.3-0.3-1.3-0.3h-16L204.2,38.7L204.2,38.7 M235.4,50.1h-3.8V31.6h3.8V50.1"/>
</svg>
