<?xml version="1.0" encoding="utf-8"?>
<!-- Generator: Adobe Illustrator 23.0.1, SVG Export Plug-In . SVG Version: 6.00 Build 0)  -->
<svg version="1.1" id="Layer_1" xmlns="http://www.w3.org/2000/svg" xmlns:xlink="http://www.w3.org/1999/xlink" x="0px" y="0px" viewBox="0 0 947 922.8" style="enable-background:new 0 0 947 922.8;" xml:space="preserve">
    <style type="text/css">
        .st0 {
            fill: #134c49;
        }
    </style>
    <g transform="translate(0.000000,1280.000000) scale(0.100000,-0.100000)">
        <path class="st0" d="M4375,12775c-885-72-1700-381-2410-915c-580-436-1063-1025-1376-1675C38,9038-18,7731,432,6540
		c345-912,989-1704,1825-2243c499-322,1097-554,1693-657c695-119,1376-82,2065,114c1244,353,2311,1255,2875,2431
		c277,576,419,1143,450,1792c52,1072-274,2118-932,2990c-513,680-1252,1230-2058,1531C5726,12731,5036,12828,4375,12775z
		 M5137,11716c263-32,482-81,733-165c162-55,352-133,357-148c8-24-169-380-298-599c-133-226-318-487-417-591c-74-77-189-128-372-163
		c-362-71-870-37-1057,70c-75,43-262,265-411,487c-141,210-264,433-355,643c-74,171-73,166-40,178c15,6,73,29,128,52
		c344,140,679,216,1125,254C4623,11742,5020,11730,5137,11716z M2812,10953c229-333,434-714,543-1011c37-102,38-105,32-210
		c-4-90-12-127-47-235c-118-357-400-780-604-907c-45-27-275-74-464-95c-335-36-805-27-1046,21l-28,6l7,67c12,115,54,344,85,467
		c203,790,656,1472,1303,1963c59,45,112,79,116,77C2714,11093,2760,11028,2812,10953z M7015,10909c126-104,335-314,444-444
		c291-349,520-763,656-1184c70-220,131-502,151-702c5-60,4-68-12-73c-103-30-824-43-1064-18c-334,35-411,61-544,183
		c-259,239-545,757-563,1020c-7,90,8,145,94,364c126,318,339,694,540,952l64,83l67-49C6885,11014,6960,10954,7015,10909z M2215,7910
		c264-24,409-50,477-87c188-103,455-458,600-801c56-131,98-283,98-350c0-131-186-573-375-892c-88-148-127-207-243-362l-95-127
		l-31,21c-276,194-592,514-812,822c-197,278-373,629-479,956c-74,231-137,526-151,715l-7,83l69,8c38,4,105,10,149,14
		C1540,7921,2093,7921,2215,7910z M8120,7886c74-10,139-21,144-26c17-17-30-325-84-540c-191-771-650-1465-1291-1958l-107-82l-41,55
		c-276,365-632,1044-657,1250c-34,288,347,1007,636,1201c58,39,268,83,525,109C7425,7914,7937,7908,8120,7886z M5042,6355
		c248-32,349-74,449-187c269-301,527-718,688-1111l40-97l-38-20c-62-31-227-95-346-133c-598-193-1209-225-1835-97
		c-225,46-494,132-683,218c-73,33-78,37-72,61c10,44,179,382,265,533c179,311,419,642,513,705c83,56,237,103,413,127
		C4574,6373,4902,6374,5042,6355z" />
    </g>
</svg>