<?xml version="1.0" encoding="utf-8"?>
<!-- Generator: Adobe Illustrator 23.0.1, SVG Export Plug-In . SVG Version: 6.00 Build 0)  -->
<svg version="1.1" id="Layer_1" xmlns="http://www.w3.org/2000/svg" xmlns:xlink="http://www.w3.org/1999/xlink" x="0px" y="0px"
	 viewBox="0 0 13.7 13.7" style="enable-background:new 0 0 13.7 13.7;" xml:space="preserve">
<style type="text/css">
	.st0{fill:#134C49;}
</style>
<path class="st0" d="M11,6.9C11,9.1,9.1,11,6.9,11c-2.3,0-4.1-1.9-4.1-4.1c0,0,0,0,0,0c0-0.3,0-0.5,0.1-0.8H0v5.5
	c0,1.2,1,2.1,2.1,2.1l0,0h9.4c1.2,0,2.1-1,2.1-2.1c0,0,0,0,0,0V6.1h-2.8C11,6.3,11,6.6,11,6.9 M11.6,0H2.1C1,0,0,1,0,2.1v2.3h3.5
	c1.3-1.9,3.9-2.3,5.8-1c0.4,0.3,0.7,0.6,1,1h3.5V2.1C13.7,1,12.7,0,11.6,0 M12.6,2.6c0,0.2-0.2,0.4-0.4,0.4h-1.1
	c-0.2,0-0.4-0.2-0.4-0.4V1.5c0-0.2,0.2-0.4,0.4-0.4h1.1c0.2,0,0.4,0.2,0.4,0.4L12.6,2.6z M9.4,6.9c0-1.4-1.1-2.5-2.5-2.5
	S4.3,5.4,4.3,6.9s1.1,2.5,2.5,2.5l0,0C8.3,9.4,9.4,8.3,9.4,6.9"/>
</svg>
