<?xml version="1.0" encoding="utf-8"?>
<!-- Generator: Adobe Illustrator 23.0.1, SVG Export Plug-In . SVG Version: 6.00 Build 0)  -->
<svg version="1.1" id="Layer_1" xmlns="http://www.w3.org/2000/svg" xmlns:xlink="http://www.w3.org/1999/xlink" x="0px" y="0px"
	 viewBox="0 0 13.7 11.4" style="enable-background:new 0 0 13.7 11.4;" xml:space="preserve">
<style type="text/css">
	.st0{fill:#134C49;}
</style>
<path class="st0" d="M13.7,1.4c-0.1,0.5-0.8,1-1.3,1.4c0.4,6.6-7,10.7-12.4,7.4c1.5,0.1,2.9-0.4,4.1-1.3c-1.2-0.1-2.2-0.8-2.6-2
	c0.4,0,0.9,0.1,1.2-0.1C1.4,6.5,0.5,5.4,0.5,4.1c0.4,0,0.7,0.3,1.2,0.2C0.5,3.4,0.2,1.8,0.8,0.5c1.5,1.8,3.6,2.9,5.9,3
	C6,0.6,9.9-1.2,11.6,0.9c0.6-0.2,1.2-0.4,1.8-0.6c-0.3,0.6-0.7,1.1-1.2,1.5C12.8,1.7,13.2,1.6,13.7,1.4"/>
</svg>
